<?xml version="1.0" encoding="UTF-8" standalone="no"?>
<svg
   xmlns:dc="http://purl.org/dc/elements/1.1/"
   xmlns:cc="http://creativecommons.org/ns#"
   xmlns:rdf="http://www.w3.org/1999/02/22-rdf-syntax-ns#"
   xmlns:svg="http://www.w3.org/2000/svg"
   xmlns="http://www.w3.org/2000/svg"
   xmlns:sodipodi="http://sodipodi.sourceforge.net/DTD/sodipodi-0.dtd"
   xmlns:inkscape="http://www.inkscape.org/namespaces/inkscape"
   width="32mm"
   height="32mm"
   viewBox="0 0 32 32"
   version="1.1"
   id="svg8"
   inkscape:version="1.0 (4035a4fb49, 2020-05-01)"
   sodipodi:docname="sensum_logo.svg">
  <defs
     id="defs2" />
  <sodipodi:namedview
     id="base"
     pagecolor="#ffffff"
     bordercolor="#666666"
     borderopacity="1.0"
     inkscape:pageopacity="0.0"
     inkscape:pageshadow="2"
     inkscape:zoom="1.979899"
     inkscape:cx="273.82091"
     inkscape:cy="130.99312"
     inkscape:document-units="mm"
     inkscape:current-layer="layer7"
     showgrid="false"
     objecttolerance="38"
     inkscape:snap-bbox="true"
     inkscape:bbox-paths="true"
     inkscape:bbox-nodes="false"
     inkscape:snap-bbox-edge-midpoints="false"
     inkscape:snap-bbox-midpoints="false"
     inkscape:window-width="1920"
     inkscape:window-height="1017"
     inkscape:window-x="-8"
     inkscape:window-y="196"
     inkscape:window-maximized="1"
     inkscape:snap-midpoints="true"
     inkscape:snap-nodes="false"
     showguides="true"
     inkscape:guide-bbox="true"
     inkscape:lockguides="false"
     fit-margin-top="0"
     fit-margin-left="0"
     fit-margin-right="0"
     fit-margin-bottom="0"
     inkscape:document-rotation="0">
    <sodipodi:guide
       position="4.9999998e-07,2.4220857e-06"
       orientation="0,120.94488"
       id="guide4529"
       inkscape:locked="false" />
    <sodipodi:guide
       position="31.999999,2.4220857e-06"
       orientation="-120.94488,0"
       id="guide4531"
       inkscape:locked="false" />
    <sodipodi:guide
       position="31.999999,32.000002"
       orientation="0,-120.94488"
       id="guide4533"
       inkscape:locked="false" />
    <sodipodi:guide
       position="4.9999998e-07,32.000002"
       orientation="120.94488,0"
       id="guide4535"
       inkscape:locked="false" />
  </sodipodi:namedview>
  <metadata
     id="metadata5">
    <rdf:RDF>
      <cc:Work
         rdf:about="">
        <dc:format>image/svg+xml</dc:format>
        <dc:type
           rdf:resource="http://purl.org/dc/dcmitype/StillImage" />
        <dc:title />
      </cc:Work>
    </rdf:RDF>
  </metadata>
  <g
     inkscape:groupmode="layer"
     id="layer2"
     inkscape:label="Circle">
    <circle
       style="fill:#899b7d;fill-opacity:1;stroke:#ffffff;stroke-width:0;stroke-miterlimit:4;stroke-dasharray:none;stroke-opacity:1"
       id="path824"
       cx="16"
       cy="16"
       r="16"
       inkscape:export-xdpi="300.70001"
       inkscape:export-ydpi="300.70001" />
  </g>
  <g
     inkscape:label="ensum"
     inkscape:groupmode="layer"
     id="layer1"
     transform="translate(5e-7,-265)"
     style="display:inline">
    <g
       aria-label="ensum"
       transform="matrix(0.26458333,0,0,0.26458333,44.0046,198.08776)"
       style="font-style:normal;font-variant:normal;font-weight:normal;font-stretch:normal;font-size:40px;line-height:1.25;font-family:Satisfy;-inkscape-font-specification:'Satisfy, Normal';font-variant-ligatures:normal;font-variant-caps:normal;font-variant-numeric:normal;font-feature-settings:normal;text-align:start;letter-spacing:0px;word-spacing:0px;writing-mode:lr-tb;text-anchor:start;fill:#000000;fill-opacity:1;stroke:none"
       id="flowRoot911">
      <path
         d="m 0.10937387,313.50192 q -2.65624997,3.89583 -6.02083317,7.61458 -3.3645832,3.63021 -7.1718747,6.55208 -3.71875,2.83334 -7.703125,4.60417 -3.895833,1.77083 -7.614583,1.77083 -1.947917,0 -4.25,-0.97396 -2.213541,-0.88541 -4.072916,-2.83333 -1.859375,-1.94792 -3.010417,-5.04687 -1.0625,-3.09896 -0.619792,-7.52605 0.354167,-3.6302 2.213542,-7.61458 1.947917,-4.07291 4.692708,-7.4375 2.833333,-3.36458 6.286458,-5.57812 3.541667,-2.21354 7.083333,-2.21354 3.364584,0 4.869792,1.68229 1.505208,1.68229 1.328125,4.16146 -0.265625,2.74479 -1.59375,5.04687 -1.239583,2.30208 -3.010417,4.16146 -1.770833,1.85937 -3.807291,3.36458 -1.947917,1.50521 -3.71875,2.74479 -1.947917,1.32813 -3.71875,2.56771 -1.770833,1.15104 -3.098958,2.125 0.08854,2.21354 0.796875,3.71875 0.708333,1.50521 1.770833,2.47917 1.0625,0.88541 2.390625,1.32812 1.416667,0.35417 2.833333,0.35417 3.010417,0 6.286458,-1.85938 3.276042,-1.94791 6.375,-4.60416 3.1875001,-2.74479 5.8437501,-5.66667 2.7447916,-2.92187 4.5156248,-5.04687 0.6197917,-0.70834 1.23958333,-0.79688 0.70833332,-0.17708 1.06249997,0.17709 0.44270832,0.26562 0.44270832,1.0625 0,0.70833 -0.61979165,1.68229 z M -22.557292,299.8665 q -1.0625,0 -2.567708,1.0625 -1.416667,1.0625 -2.833334,3.09896 -1.416666,1.94792 -2.65625,4.86979 -1.239583,2.83333 -1.859375,6.55208 1.0625,-0.79687 2.302084,-1.59375 1.239583,-0.88541 2.479166,-1.85937 3.807292,-2.92188 5.3125,-5.13542 1.505208,-2.21354 1.682292,-3.80729 0.177083,-1.68229 -0.354167,-2.39062 -0.53125,-0.79688 -1.505208,-0.79688 z"
         style="font-style:normal;font-variant:normal;font-weight:normal;font-stretch:normal;font-size:90.66666412px;font-family:Satisfy;-inkscape-font-specification:'Satisfy, Normal';font-variant-ligatures:normal;font-variant-caps:normal;font-variant-numeric:normal;font-feature-settings:normal;text-align:start;writing-mode:lr-tb;text-anchor:start;fill:#899b7d;fill-opacity:1"
         id="path913"
         inkscape:connector-curvature="0" />
      <path
         d="m 20.119788,334.13212 q -2.036458,0 -3.541666,-0.79687 -1.416667,-0.70833 -2.302083,-1.94792 -0.885417,-1.23958 -1.151042,-2.83333 -0.265625,-1.68229 0.177083,-3.54167 0.265625,-1.23958 0.885417,-3.27604 0.619792,-2.125 1.239583,-4.51562 0.708333,-2.47917 1.239583,-4.86979 0.619792,-2.47917 0.796875,-4.42709 0.177084,-2.03646 -0.177083,-3.27604 -0.354167,-1.32812 -1.505208,-1.32812 -1.416667,0 -2.921875,0.97395 -1.505208,0.88542 -3.0989583,2.47917 -1.5052083,1.59375 -3.0989583,3.71875 -1.5052083,2.03646 -3.0104166,4.25 -0.7968749,3.01042 -1.3281249,5.3125 -0.53125,2.21354 -0.9739583,4.07292 -0.35416668,1.77083 -0.70833333,3.1875 -0.35416666,1.32812 -0.61979165,2.5677 -0.265625,0.88542 -1.59374992,1.77084 -1.328125,0.79687 -2.8333333,1.32812 -1.5052083,0.53125 -2.5677083,0.53125 -1.1510416,0 -0.9739583,-0.79687 0.088542,-0.53125 0.6197917,-2.39063 0.4427083,-1.85937 1.1510416,-4.33854 0.6197917,-2.56771 1.328125,-5.40104 0.7083333,-2.83333 1.3281249,-5.40104 0.4427084,-2.03646 0.9739584,-4.51563 0.4427083,-2.125 1.0624999,-4.95833 0.70833334,-2.83333 1.59374998,-6.19792 0.61979165,-0.53125 1.23958332,-0.79687 0.7083333,-0.35417 1.4166666,-0.53125 0.7083333,-0.26563 1.5052083,-0.35417 0.7083333,0 1.4166666,0.0885 0.6197917,0.0885 1.2395833,0.35417 0.7083333,0.17708 1.2395833,0.61979 -0.265625,0.61979 -0.6197916,1.77084 -0.3541667,1.0625 -0.7083333,2.30208 -0.3541667,1.41667 -0.8854167,2.92187 1.1510417,-1.59375 2.5677083,-3.1875 1.5052086,-1.68229 3.1874996,-3.01041 1.770834,-1.32813 3.71875,-2.125 1.947917,-0.88542 3.984375,-0.88542 1.682292,0 3.010417,0.97396 1.328125,0.97396 2.036458,2.74479 0.796875,1.68229 0.885417,4.07292 0.177083,2.39062 -0.619792,5.22396 l -0.973958,3.89583 q -0.442709,1.85937 -1.151042,4.42708 -0.619792,2.47917 -1.59375,5.48958 -0.53125,1.94792 -0.442708,3.36459 0.177083,1.41666 1.770833,1.41666 1.59375,0 3.984375,-1.94791 2.479166,-1.94792 4.958333,-4.69271 2.479167,-2.74479 4.692708,-5.57813 2.213542,-2.92187 3.364584,-4.6927 0.796874,-1.15104 1.505208,-1.50521 0.708333,-0.35417 1.0625,-0.0885 0.442708,0.26562 0.442708,1.23958 0,0.88542 -0.708333,2.30208 -0.619792,1.23959 -1.947917,3.27604 -1.239583,2.03646 -3.010416,4.33855 -1.770834,2.30208 -3.807292,4.6927 -2.036458,2.30209 -4.25,4.25 -2.213541,1.85938 -4.427083,3.01042 -2.125,1.23958 -4.072917,1.23958 z"
         style="font-style:normal;font-variant:normal;font-weight:normal;font-stretch:normal;font-size:90.66666412px;font-family:Satisfy;-inkscape-font-specification:'Satisfy, Normal';font-variant-ligatures:normal;font-variant-caps:normal;font-variant-numeric:normal;font-feature-settings:normal;text-align:start;writing-mode:lr-tb;text-anchor:start;fill:#899b7d;fill-opacity:1"
         id="path915"
         inkscape:connector-curvature="0" />
      <path
         d="m 48.276039,328.90817 q 0.53125,0.35416 1.328125,0.35416 0.885416,0 1.682291,-0.35416 0.885417,-0.35417 1.59375,-0.97396 0.796875,-0.61979 1.151042,-1.59375 0.354167,-0.97396 0,-2.74479 -0.354167,-1.85938 -1.151042,-3.89584 -0.708333,-2.125 -1.59375,-4.25 -0.885416,-2.125 -1.505208,-3.89583 -0.53125,-1.32812 -0.885417,-2.47917 -0.354166,-0.97395 -0.708333,-1.85937 -0.265625,-0.97396 -0.442708,-1.32813 -0.442709,0.70834 -1.59375,2.30209 -1.0625,1.59375 -2.390625,3.36458 -1.239583,1.68229 -2.390625,3.1875 -1.151042,1.41667 -1.59375,1.94792 -0.708333,0.79687 -1.416667,0.97395 -0.619791,0.0885 -1.0625,-0.26562 -0.442708,-0.44271 -0.53125,-1.15104 0,-0.79688 0.708334,-1.85938 0.53125,-0.70833 1.59375,-2.21354 1.0625,-1.59375 2.125,-3.1875 1.0625,-1.68229 1.947916,-2.92187 0.885417,-1.32813 0.973959,-1.59375 0.177083,-0.70834 -0.53125,-1.85938 -0.619792,-1.15104 -0.177084,-2.65625 0.354167,-1.23958 1.59375,-2.83333 1.239583,-1.68229 2.921875,-3.01042 1.682292,-1.32812 3.453125,-1.94791 1.770833,-0.70834 3.1875,0 1.151042,0.70833 1.859375,1.59375 0.708333,0.79687 0.53125,1.68229 -0.177083,0.44271 -0.53125,1.15104 -0.354167,0.70833 -1.0625,1.77083 -0.708333,0.97396 -2.036458,2.56771 0.265625,2.03646 0.708333,3.71875 0.53125,1.68229 0.973958,2.92188 0.53125,1.5052 1.151042,2.74479 0.796875,1.59375 1.682292,3.27604 0.885416,1.68229 1.593749,3.36458 0.708334,1.59375 1.151042,3.01042 0.442708,1.41666 0.265625,2.39062 -0.265625,1.50521 -1.59375,3.63021 -1.239583,2.125 -3.1875,4.16146 -1.859375,1.94792 -4.338541,3.36458 -2.390625,1.41667 -5.046875,1.41667 -1.859375,0 -3.630208,-1.15104 -1.682292,-1.15104 -2.921875,-2.65625 -1.151042,-1.59375 -1.770834,-3.09896 -0.53125,-1.50521 -0.08854,-2.30208 0.53125,-1.0625 0.973958,-1.6823 0.442708,-0.61979 1.328125,-1.41666 0.354167,-0.26563 0.885417,-0.61979 0.442708,-0.26563 1.239583,-0.53125 0.796875,-0.26563 1.859375,-0.6198 0.885417,2.7448 1.59375,4.33855 0.708333,1.5052 1.151041,2.39062 0.53125,0.97396 0.973958,1.32813 z"
         style="font-style:normal;font-variant:normal;font-weight:normal;font-stretch:normal;font-size:90.66666412px;font-family:Satisfy;-inkscape-font-specification:'Satisfy, Normal';font-variant-ligatures:normal;font-variant-caps:normal;font-variant-numeric:normal;font-feature-settings:normal;text-align:start;writing-mode:lr-tb;text-anchor:start;fill:#899b7d;fill-opacity:1"
         id="path917"
         inkscape:connector-curvature="0" />
      <path
         d="m 78.64583,333.33525 q -3.364583,0 -5.489583,-1.0625 -2.125,-1.0625 -3.364583,-2.56771 -1.151042,-1.59375 -1.682292,-3.36458 -0.442708,-1.85938 -0.442708,-3.36459 0,-2.65625 0.442708,-5.57812 0.442709,-3.01042 1.0625,-5.48958 0.619792,-2.56771 1.0625,-4.33854 0.53125,-1.77084 0.708334,-2.21355 0.796875,-2.5677 2.036458,-4.42708 1.328125,-1.94792 3.630208,-2.65625 0.885417,-0.17708 1.859375,-0.35417 0.796875,-0.0885 1.59375,-0.0885 0.885417,0 1.59375,0.26563 -2.390625,6.10937 -3.807291,10.18229 -1.328125,4.07292 -2.036459,6.64062 -0.796875,2.92188 -0.973958,4.69271 -0.442708,3.98438 0.708333,6.02083 1.151042,2.03646 4.692708,2.03646 2.302084,0 4.427084,-1.68229 2.125,-1.77083 3.895833,-4.51562 -0.265625,-1.41667 -0.265625,-2.92188 0,-2.83333 0.442708,-5.48958 0.53125,-2.74479 1.151042,-5.04688 0.708333,-2.39062 1.416666,-4.25 0.796875,-1.85937 1.328125,-2.92187 0.973959,-2.125 1.770834,-2.56771 0.796875,-0.53125 2.567708,-0.61979 0.708333,-0.0885 1.151042,0 0.53125,0 0.885416,0.0885 1.062497,0.26563 1.062497,1.0625 0,1.41667 -0.17708,4.25 -0.177083,2.83333 -1.0625,5.84375 -0.619792,2.47917 -1.239583,4.25 -0.53125,1.68229 -1.0625,2.92187 -0.53125,1.15105 -1.0625,1.94792 -0.53125,0.70833 -0.973959,1.32813 0.177084,2.65625 0.442709,4.25 0.265625,1.59375 0.619791,2.47916 0.442709,0.79688 0.973959,1.15104 0.619791,0.26563 1.328125,0.26563 1.239583,0 2.921878,-1.15104 1.68229,-1.23959 3.45312,-3.01042 1.85938,-1.85937 3.63021,-3.98437 1.85937,-2.21355 3.36458,-4.16146 1.50521,-1.94792 2.56771,-3.36458 1.0625,-1.50521 1.32813,-1.85938 0.61979,-0.79687 1.15104,-0.97396 0.61979,-0.17708 0.97396,0.17709 0.35416,0.26562 0.35416,0.97395 0.0885,0.6198 -0.35416,1.41667 -1.77084,3.36458 -4.42709,7.17187 -2.56771,3.71875 -5.57812,6.90625 -2.92188,3.1875 -5.93229,5.3125 -3.01042,2.125 -5.66667,2.125 -2.390625,0 -3.807292,-1.59375 -1.328125,-1.68229 -2.302083,-4.78125 -2.036458,3.1875 -4.78125,4.95834 -2.744791,1.68229 -6.109375,1.68229 z"
         style="font-style:normal;font-variant:normal;font-weight:normal;font-stretch:normal;font-size:90.66666412px;font-family:Satisfy;-inkscape-font-specification:'Satisfy, Normal';font-variant-ligatures:normal;font-variant-caps:normal;font-variant-numeric:normal;font-feature-settings:normal;text-align:start;writing-mode:lr-tb;text-anchor:start;fill:#899b7d;fill-opacity:1"
         id="path919"
         inkscape:connector-curvature="0" />
      <path
         d="m 151.42707,327.84567 q 0,-1.85938 0.35417,-4.25 0.44271,-2.39063 1.0625,-4.8698 0.61979,-2.5677 1.23958,-4.95833 0.61979,-2.39062 1.0625,-4.25 0.53125,-2.30208 -0.0885,-3.54166 -0.61979,-1.23959 -2.125,-1.23959 -0.70833,0 -2.83333,1.23959 -2.03646,1.23958 -4.51563,4.33854 -2.39062,3.01041 -4.78125,8.23437 -2.30208,5.13542 -3.63021,13.10417 -1.68229,0.88541 -3.1875,1.15104 -0.79687,0.17708 -1.41666,0.26562 -1.77084,0.0885 -2.30209,-0.61979 -0.53125,-0.61979 0.17709,-3.1875 0.35416,-1.23958 1.23958,-3.98437 0.97396,-2.74479 1.85938,-5.93229 0.88541,-3.27605 1.5052,-6.46354 0.70834,-3.27605 0.70834,-5.66667 0,-1.68229 -0.61979,-2.30208 -0.53125,-0.6198 -1.59375,-0.6198 -0.79688,0 -2.65625,0.88542 -1.85938,0.88542 -4.16146,3.45313 -2.30209,2.5677 -4.60417,7.17187 -2.21354,4.51562 -3.80729,11.77604 v -0.17708 q -0.17708,0.70833 -0.35417,1.41666 -0.17708,0.6198 -0.26562,1.32813 -0.0885,0.70833 -0.26563,1.32812 l -4.42708,1.94792 q -0.44271,0.17708 -1.15104,0.26563 -0.61979,0.0885 -1.23959,-0.26563 -0.53125,-0.26562 -0.79687,-1.23958 -0.26563,-0.97396 0.17708,-2.92188 l 5.57813,-23.10937 q 0.26562,-1.15104 0.44271,-2.21354 0.17708,-0.97396 0.17708,-1.85938 0.0885,-0.97396 -0.0885,-1.59375 1.50521,-0.70833 2.65625,-1.0625 1.15104,-0.35416 1.85937,-0.53125 0.88542,-0.26562 1.50521,-0.26562 2.83333,0 1.85938,4.86979 -0.35417,1.41667 -1.0625,4.16146 1.68229,-2.125 3.54166,-3.98438 1.94792,-1.94791 3.89584,-3.45312 1.94791,-1.50521 3.89583,-2.39063 2.03646,-0.88541 3.98437,-0.88541 1.50521,0 2.47917,0.88541 1.0625,0.88542 1.59375,2.39063 0.61979,1.41666 0.70833,3.45312 0.0885,1.94792 -0.17708,4.07292 1.41667,-1.85938 3.09896,-3.71875 1.77083,-1.94792 3.63021,-3.45313 1.94791,-1.5052 3.98437,-2.47916 2.03646,-0.97396 4.07292,-0.97396 2.39062,0 3.63021,1.41667 1.32812,1.41666 1.77083,3.6302 0.53125,2.21355 0.26563,4.78125 -0.17709,2.56771 -0.70834,4.95834 l -3.01041,11.95312 q -0.97396,4.42708 1.85937,4.42708 2.21354,0 4.86979,-2.125 2.65625,-2.125 5.13542,-5.04687 2.56771,-2.92188 4.78125,-6.02083 2.21354,-3.09896 3.71875,-4.95834 0.53125,-0.61979 1.0625,-0.70833 0.61979,-0.0885 0.97396,0.26563 0.4427,0.26562 0.4427,0.97395 0.0885,0.70834 -0.4427,1.77084 -1.77084,3.09896 -4.33855,6.90625 -2.5677,3.71875 -5.66666,6.99479 -3.01042,3.27604 -6.46354,5.48958 -3.45313,2.21354 -7.17188,2.21354 -1.23958,0 -2.47916,-0.26562 -1.15105,-0.26563 -2.21355,-0.97396 -0.97395,-0.70833 -1.59375,-1.85938 -0.61979,-1.23958 -0.61979,-3.09895 z"
         style="font-style:normal;font-variant:normal;font-weight:normal;font-stretch:normal;font-size:90.66666412px;font-family:Satisfy;-inkscape-font-specification:'Satisfy, Normal';font-variant-ligatures:normal;font-variant-caps:normal;font-variant-numeric:normal;font-feature-settings:normal;text-align:start;writing-mode:lr-tb;text-anchor:start;fill:#899b7d;fill-opacity:1"
         id="path921"
         inkscape:connector-curvature="0" />
    </g>
  </g>
  <g
     style="display:inline"
     transform="translate(5e-7,-265)"
     id="g937"
     inkscape:groupmode="layer"
     inkscape:label="S">
    <g
       aria-label="S"
       transform="matrix(0.26458333,0,0,0.26458333,21.20309,199.79079)"
       style="font-style:normal;font-variant:normal;font-weight:normal;font-stretch:normal;font-size:40px;line-height:1.25;font-family:Satisfy;-inkscape-font-specification:'Satisfy, Normal';font-variant-ligatures:normal;font-variant-caps:normal;font-variant-numeric:normal;font-feature-settings:normal;text-align:start;letter-spacing:0px;word-spacing:0px;writing-mode:lr-tb;text-anchor:start;fill:#000000;fill-opacity:1;stroke:none"
       id="flowRoot935">
      <path
         d="m -7.5052092,291.27796 q -0.088542,-0.26563 0.5312499,-1.32813 0.6197917,-1.15104 1.328125,-2.74479 0.796875,-1.68229 1.5052083,-3.71875 0.796875,-2.125 1.0625,-4.33854 0.3541666,-2.21354 0,-4.42708 -0.3541667,-2.21354 -1.859375,-4.25 -0.8854166,-1.0625 -2.6562499,-1.15104 -1.6822916,-0.17709 -3.8958331,0.53125 -2.125,0.61979 -4.515625,2.03645 -2.302083,1.32813 -4.25,3.1875 -1.947916,1.77084 -3.364583,3.98438 -1.328125,2.21354 -1.505208,4.51562 -0.177084,1.85938 0.08854,3.45313 0.354167,1.59375 0.885417,2.92187 0.53125,1.32813 1.151042,2.47917 0.619791,1.15104 1.151041,2.03646 0.708333,1.23958 2.213542,2.74479 1.505208,1.50521 3.276041,3.45313 1.770834,1.85937 3.541667,4.25 1.770833,2.39062 3.0989582,5.40104 1.3281249,3.01041 1.8593749,6.72916 0.53125,3.71875 -0.088542,8.23438 -0.9739583,6.55208 -3.0989581,10.89062 -2.125,4.42709 -4.692708,7.08334 -2.479167,2.65625 -5.046875,3.80729 -2.567708,1.23958 -4.25,1.59375 -1.328125,0.26562 -3.1875,0.44271 -1.770833,0.26562 -3.807291,-0.0885 -1.947917,-0.26562 -3.984375,-1.23958 -2.036458,-0.88542 -3.630208,-2.83333 -1.859375,-2.21354 -2.921875,-4.78125 -0.973959,-2.21354 -1.416667,-5.13542 -0.53125,-2.83333 0.442708,-5.93229 0.708334,-0.79688 1.505209,-1.41667 0.796875,-0.61979 1.59375,-1.0625 0.885416,-0.53125 1.859375,-0.97396 1.151041,-0.35416 2.302083,-0.61979 0.973958,-0.17708 2.036458,-0.17708 1.151042,-0.0885 2.125,0.26562 -1.328125,1.50521 -1.859375,2.83334 -0.354166,0.70833 -0.53125,1.23958 -0.354166,1.68229 -0.265625,3.98438 0.177084,2.39062 0.973958,4.51562 0.885417,2.21354 2.479167,3.71875 1.59375,1.59375 4.25,1.68229 6.463541,0.17709 10.979166,-10.09375 1.505209,-3.1875 1.505209,-6.46354 0.08854,-3.27604 -0.796875,-6.28646 -0.796875,-3.01041 -2.213542,-5.57812 -1.328125,-2.65625 -2.744792,-4.51563 -1.416666,-1.85937 -3.453124,-3.98437 -1.947917,-2.21354 -3.895834,-4.78125 -1.947916,-2.56771 -3.541666,-5.57813 -1.505209,-3.01041 -2.036459,-6.55208 -0.708333,-4.95833 0.885417,-9.03125 1.682292,-4.16146 4.427083,-7.26042 2.833334,-3.09895 6.109375,-5.04687 3.364583,-1.94792 5.932292,-2.47917 14.2552073,-2.83333 18.6822905,4.78125 1.8593749,2.92188 2.0364583,6.19792 0.1770833,3.27604 -0.4427083,6.10937 -0.53125,2.7448 -1.4166667,4.69271 -0.7968749,1.85938 -1.0624999,2.03646 -0.53125,0.53125 -1.68229166,1.15104 -1.15104164,0.61979 -3.71874994,1.15104 -0.7083333,0.17709 -1.4166666,0.17709 -0.6197916,0 -1.3281249,-0.0885 -0.7083334,-0.0885 -1.2395833,-0.35417 z"
         style="font-style:normal;font-variant:normal;font-weight:normal;font-stretch:normal;font-size:90.66666412px;font-family:Satisfy;-inkscape-font-specification:'Satisfy, Normal';font-variant-ligatures:normal;font-variant-caps:normal;font-variant-numeric:normal;font-feature-settings:normal;text-align:start;writing-mode:lr-tb;text-anchor:start;fill:#ffffff"
         id="path910"
         inkscape:connector-curvature="0" />
    </g>
  </g>
  <g
     style="display:inline;opacity:1"
     inkscape:label="Own_drawing_hand with fingers"
     id="g911"
     inkscape:groupmode="layer">
    <g
       inkscape:export-ydpi="300.70001"
       inkscape:export-xdpi="300.70001"
       transform="matrix(0.09435935,0.25237544,-0.25237544,0.09435935,5.6250958,28.259179)"
       id="g909">
      <path
         style="fill:none;stroke:#ffffff;stroke-width:1.76756549;stroke-linecap:round;stroke-linejoin:bevel;stroke-miterlimit:4;stroke-dasharray:none;stroke-opacity:1"
         d="m -69.763063,-35.458626 c -0.149243,-0.698239 -0.480731,-1.009428 -0.534482,-2.064885 -0.06508,-1.27789 -0.108358,-2.732253 -0.436168,-4.130088 0,0 0.1024,-2.929346 0.109724,-3.196515 0.05867,-2.140414 -2.216411,-3.277227 -2.57247,-2.505652 -0.657429,2.8731 -0.733241,3.489337 -0.902036,12.528261 0.866553,4.135134 4.478629,9.097508 5.463557,11.471 1.155935,1.881794 2.116222,2.63577 3.489972,3.395866 3.431321,3.18948 6.975337,6.554008 10.938663,8.741342 3.397054,1.4578023 7.22129,2.8229036 9.589975,4.2337499 2.419626,1.4411878 19.95346,2.7546442 28.20672,-0.690893 m -25.118278,-8.9185439 c -3.570968,-3.903933 0.366763,-1.410666 -7.332349,-7.037775 -1.560939,-0.80222 -5.193125,-2.7763 -8.238044,-2.541487 -1.582082,-1.865722 -4.811733,-4.125525 -6.476476,-5.412617 -1.835611,-2.766589 -3.711094,-4.596414 -6.514696,-3.741774 -1.183373,0.942882 2.913431,4.586612 3.899125,6.36375 0.56238,1.047185 1.606167,2.059642 2.168546,2.689211 0.28119,0.314785 2.271453,2.595284 3.166402,3.045918 1.263306,0.636113 1.194863,1.338875 1.604705,2.28568"
         id="path901"
         inkscape:connector-curvature="0"
         sodipodi:nodetypes="cscscccccscccccccssc" />
      <path
         style="fill:none;stroke:#ffffff;stroke-width:0.88378274;stroke-linecap:butt;stroke-linejoin:miter;stroke-miterlimit:4;stroke-dasharray:none;stroke-opacity:1"
         d="m -72.146068,-47.579502 c -0.03341,-0.367496 0.233863,-1.520095 0.233863,-1.520095 0.351192,-0.664627 1.607141,-0.278797 2.221677,1.353053 0.282843,1.786683 0.582236,3.064107 0.868626,4.276312 0.03073,0.130056 0.501129,3.691662 0.501129,3.691662 0.830127,1.93934 0.796836,2.903073 1.336347,4.460058 l 0.601357,0.283974 0.567946,0.584653"
         id="path903"
         inkscape:connector-curvature="0"
         sodipodi:nodetypes="cccscccc" />
      <path
         sodipodi:nodetypes="ccsccc"
         inkscape:connector-curvature="0"
         id="path905"
         d="m -69.808646,-48.006403 c 0.351192,-0.664627 1.607141,-0.278797 2.221677,1.353053 0.282843,1.786683 0.525102,3.077414 0.868626,4.276312 0.03793,0.132384 0.501129,3.691662 0.501129,3.691662 0.830127,1.93934 0.796836,2.903073 1.336347,4.460058 l 0.294251,0.921809"
         style="fill:none;stroke:#ffffff;stroke-width:0.88378274;stroke-linecap:butt;stroke-linejoin:miter;stroke-miterlimit:4;stroke-dasharray:none;stroke-opacity:1" />
      <path
         style="fill:none;stroke:#ffffff;stroke-width:0.88378274;stroke-linecap:butt;stroke-linejoin:miter;stroke-miterlimit:4;stroke-dasharray:none;stroke-opacity:1"
         d="m -66.950201,-43.234453 c 0.351192,-0.263028 1.016553,-0.538656 1.631089,1.093194 0.282843,1.786683 0.114715,2.264959 0.49065,3.095136 0.101307,0.223716 0.54323,2.338573 0.453882,3.455427 0.712009,2.010211 1.859894,3.375544 2.399405,4.932529"
         id="path907"
         inkscape:connector-curvature="0"
         sodipodi:nodetypes="ccscc" />
    </g>
    <g
       id="g931"
       transform="matrix(-0.08102171,-0.25696795,0.25696795,-0.08102171,26.99701,4.0363892)"
       inkscape:export-xdpi="300.70001"
       inkscape:export-ydpi="300.70001">
      <path
         sodipodi:nodetypes="cscscccccscccccccssc"
         inkscape:connector-curvature="0"
         id="path923"
         d="m -69.763063,-35.458626 c -0.149243,-0.698239 -0.480731,-1.009428 -0.534482,-2.064885 -0.06508,-1.27789 -0.108358,-2.732253 -0.436168,-4.130088 0,0 0.1024,-2.929346 0.109724,-3.196515 0.05867,-2.140414 -2.216411,-3.277227 -2.57247,-2.505652 -0.657429,2.8731 -0.733241,3.489337 -0.902036,12.528261 0.866553,4.135134 4.478629,9.097508 5.463557,11.471 1.155935,1.881794 2.116222,2.63577 3.489972,3.395866 3.431321,3.18948 6.975337,6.554008 10.938663,8.741342 3.397054,1.4578023 7.22129,2.8229036 9.589975,4.2337499 2.419626,1.4411878 25.470008,2.3807208 34.030947,-2.6519496 m -30.942505,-6.9574873 c -3.570968,-3.903933 0.366763,-1.410666 -7.332349,-7.037775 -1.560939,-0.80222 -5.193125,-2.7763 -8.238044,-2.541487 -1.582082,-1.865722 -4.811733,-4.125525 -6.476476,-5.412617 -1.835611,-2.766589 -3.711094,-4.596414 -6.514696,-3.741774 -1.183373,0.942882 2.913431,4.586612 3.899125,6.36375 0.56238,1.047185 1.606167,2.059642 2.168546,2.689211 0.28119,0.314785 2.271453,2.595284 3.166402,3.045918 1.263306,0.636113 1.194863,1.338875 1.604705,2.28568"
         style="fill:none;stroke:#ffffff;stroke-width:1.76756549;stroke-linecap:round;stroke-linejoin:bevel;stroke-miterlimit:4;stroke-dasharray:none;stroke-opacity:1" />
      <path
         sodipodi:nodetypes="cccscccc"
         inkscape:connector-curvature="0"
         id="path925"
         d="m -72.146068,-47.579502 c -0.03341,-0.367496 0.233863,-1.520095 0.233863,-1.520095 0.351192,-0.664627 1.607141,-0.278797 2.221677,1.353053 0.282843,1.786683 0.582236,3.064107 0.868626,4.276312 0.03073,0.130056 0.501129,3.691662 0.501129,3.691662 0.830127,1.93934 0.796836,2.903073 1.336347,4.460058 l 0.601357,0.283974 0.567946,0.584653"
         style="fill:none;stroke:#ffffff;stroke-width:0.88378274;stroke-linecap:butt;stroke-linejoin:miter;stroke-miterlimit:4;stroke-dasharray:none;stroke-opacity:1" />
      <path
         style="fill:none;stroke:#ffffff;stroke-width:0.88378274;stroke-linecap:butt;stroke-linejoin:miter;stroke-miterlimit:4;stroke-dasharray:none;stroke-opacity:1"
         d="m -69.808646,-48.006403 c 0.351192,-0.664627 1.607141,-0.278797 2.221677,1.353053 0.282843,1.786683 0.525102,3.077414 0.868626,4.276312 0.03793,0.132384 0.501129,3.691662 0.501129,3.691662 0.830127,1.93934 0.796836,2.903073 1.336347,4.460058 l 0.294251,0.921809"
         id="path927"
         inkscape:connector-curvature="0"
         sodipodi:nodetypes="ccsccc" />
      <path
         sodipodi:nodetypes="ccscc"
         inkscape:connector-curvature="0"
         id="path929"
         d="m -66.950201,-43.234453 c 0.351192,-0.263028 1.016553,-0.538656 1.631089,1.093194 0.282843,1.786683 0.114715,2.264959 0.49065,3.095136 0.101307,0.223716 0.54323,2.338573 0.453882,3.455427 0.712009,2.010211 1.859894,3.375544 2.399405,4.932529"
         style="fill:none;stroke:#ffffff;stroke-width:0.88378274;stroke-linecap:butt;stroke-linejoin:miter;stroke-miterlimit:4;stroke-dasharray:none;stroke-opacity:1" />
    </g>
  </g>
  <g
     inkscape:groupmode="layer"
     id="layer7"
     inkscape:label="Satisfy subtitle"
     style="display:inline" />
</svg>
