<?xml version="1.0" encoding="UTF-8" standalone="no"?>
<svg
   xmlns:dc="http://purl.org/dc/elements/1.1/"
   xmlns:cc="http://creativecommons.org/ns#"
   xmlns:rdf="http://www.w3.org/1999/02/22-rdf-syntax-ns#"
   xmlns:svg="http://www.w3.org/2000/svg"
   xmlns="http://www.w3.org/2000/svg"
   xmlns:sodipodi="http://sodipodi.sourceforge.net/DTD/sodipodi-0.dtd"
   xmlns:inkscape="http://www.inkscape.org/namespaces/inkscape"
   sodipodi:docname="sensum_favicon.svg"
   inkscape:version="1.0 (4035a4fb49, 2020-05-01)"
   id="svg8"
   version="1.1"
   viewBox="0 0 32 32"
   height="32mm"
   width="32mm">
  <defs
     id="defs2" />
  <sodipodi:namedview
     inkscape:document-rotation="0"
     fit-margin-bottom="0"
     fit-margin-right="0"
     fit-margin-left="0"
     fit-margin-top="0"
     inkscape:lockguides="false"
     inkscape:guide-bbox="true"
     showguides="true"
     inkscape:snap-nodes="false"
     inkscape:snap-midpoints="true"
     inkscape:window-maximized="1"
     inkscape:window-y="196"
     inkscape:window-x="-8"
     inkscape:window-height="1017"
     inkscape:window-width="1920"
     inkscape:snap-bbox-midpoints="false"
     inkscape:snap-bbox-edge-midpoints="false"
     inkscape:bbox-nodes="false"
     inkscape:bbox-paths="true"
     inkscape:snap-bbox="true"
     objecttolerance="38"
     showgrid="false"
     inkscape:current-layer="layer7"
     inkscape:document-units="mm"
     inkscape:cy="9.7748188"
     inkscape:cx="273.82091"
     inkscape:zoom="1.979899"
     inkscape:pageshadow="2"
     inkscape:pageopacity="0.0"
     borderopacity="1.0"
     bordercolor="#666666"
     pagecolor="#ffffff"
     id="base">
    <sodipodi:guide
       inkscape:locked="false"
       id="guide4529"
       orientation="0,120.94488"
       position="4.9999998e-07,2.4220857e-06" />
    <sodipodi:guide
       inkscape:locked="false"
       id="guide4531"
       orientation="-120.94488,0"
       position="31.999999,2.4220857e-06" />
    <sodipodi:guide
       inkscape:locked="false"
       id="guide4533"
       orientation="0,-120.94488"
       position="31.999999,32.000002" />
    <sodipodi:guide
       inkscape:locked="false"
       id="guide4535"
       orientation="120.94488,0"
       position="4.9999998e-07,32.000002" />
  </sodipodi:namedview>
  <metadata
     id="metadata5">
    <rdf:RDF>
      <cc:Work
         rdf:about="">
        <dc:format>image/svg+xml</dc:format>
        <dc:type
           rdf:resource="http://purl.org/dc/dcmitype/StillImage" />
        <dc:title />
      </cc:Work>
    </rdf:RDF>
  </metadata>
  <g
     inkscape:label="Circle"
     id="layer2"
     inkscape:groupmode="layer">
    <circle
       inkscape:export-ydpi="300.70001"
       inkscape:export-xdpi="300.70001"
       r="16"
       cy="16"
       cx="16"
       id="path824"
       style="fill:#899b7d;fill-opacity:1;stroke:#ffffff;stroke-width:0;stroke-miterlimit:4;stroke-dasharray:none;stroke-opacity:1" />
  </g>
  <g
     style="display:inline"
     transform="translate(5e-7,-265)"
     id="layer1"
     inkscape:groupmode="layer"
     inkscape:label="ensum" />
  <g
     inkscape:label="S"
     inkscape:groupmode="layer"
     id="g937"
     transform="translate(5e-7,-265)"
     style="display:inline">
    <g
       id="flowRoot935"
       style="font-style:normal;font-variant:normal;font-weight:normal;font-stretch:normal;font-size:40px;line-height:1.25;font-family:Satisfy;-inkscape-font-specification:'Satisfy, Normal';font-variant-ligatures:normal;font-variant-caps:normal;font-variant-numeric:normal;font-feature-settings:normal;text-align:start;letter-spacing:0px;word-spacing:0px;writing-mode:lr-tb;text-anchor:start;fill:#000000;fill-opacity:1;stroke:none"
       transform="matrix(0.26458333,0,0,0.26458333,21.20309,199.79079)"
       aria-label="S">
      <path
         inkscape:connector-curvature="0"
         id="path910"
         style="font-style:normal;font-variant:normal;font-weight:normal;font-stretch:normal;font-size:90.66666412px;font-family:Satisfy;-inkscape-font-specification:'Satisfy, Normal';font-variant-ligatures:normal;font-variant-caps:normal;font-variant-numeric:normal;font-feature-settings:normal;text-align:start;writing-mode:lr-tb;text-anchor:start;fill:#ffffff"
         d="m -7.5052092,291.27796 q -0.088542,-0.26563 0.5312499,-1.32813 0.6197917,-1.15104 1.328125,-2.74479 0.796875,-1.68229 1.5052083,-3.71875 0.796875,-2.125 1.0625,-4.33854 0.3541666,-2.21354 0,-4.42708 -0.3541667,-2.21354 -1.859375,-4.25 -0.8854166,-1.0625 -2.6562499,-1.15104 -1.6822916,-0.17709 -3.8958331,0.53125 -2.125,0.61979 -4.515625,2.03645 -2.302083,1.32813 -4.25,3.1875 -1.947916,1.77084 -3.364583,3.98438 -1.328125,2.21354 -1.505208,4.51562 -0.177084,1.85938 0.08854,3.45313 0.354167,1.59375 0.885417,2.92187 0.53125,1.32813 1.151042,2.47917 0.619791,1.15104 1.151041,2.03646 0.708333,1.23958 2.213542,2.74479 1.505208,1.50521 3.276041,3.45313 1.770834,1.85937 3.541667,4.25 1.770833,2.39062 3.0989582,5.40104 1.3281249,3.01041 1.8593749,6.72916 0.53125,3.71875 -0.088542,8.23438 -0.9739583,6.55208 -3.0989581,10.89062 -2.125,4.42709 -4.692708,7.08334 -2.479167,2.65625 -5.046875,3.80729 -2.567708,1.23958 -4.25,1.59375 -1.328125,0.26562 -3.1875,0.44271 -1.770833,0.26562 -3.807291,-0.0885 -1.947917,-0.26562 -3.984375,-1.23958 -2.036458,-0.88542 -3.630208,-2.83333 -1.859375,-2.21354 -2.921875,-4.78125 -0.973959,-2.21354 -1.416667,-5.13542 -0.53125,-2.83333 0.442708,-5.93229 0.708334,-0.79688 1.505209,-1.41667 0.796875,-0.61979 1.59375,-1.0625 0.885416,-0.53125 1.859375,-0.97396 1.151041,-0.35416 2.302083,-0.61979 0.973958,-0.17708 2.036458,-0.17708 1.151042,-0.0885 2.125,0.26562 -1.328125,1.50521 -1.859375,2.83334 -0.354166,0.70833 -0.53125,1.23958 -0.354166,1.68229 -0.265625,3.98438 0.177084,2.39062 0.973958,4.51562 0.885417,2.21354 2.479167,3.71875 1.59375,1.59375 4.25,1.68229 6.463541,0.17709 10.979166,-10.09375 1.505209,-3.1875 1.505209,-6.46354 0.08854,-3.27604 -0.796875,-6.28646 -0.796875,-3.01041 -2.213542,-5.57812 -1.328125,-2.65625 -2.744792,-4.51563 -1.416666,-1.85937 -3.453124,-3.98437 -1.947917,-2.21354 -3.895834,-4.78125 -1.947916,-2.56771 -3.541666,-5.57813 -1.505209,-3.01041 -2.036459,-6.55208 -0.708333,-4.95833 0.885417,-9.03125 1.682292,-4.16146 4.427083,-7.26042 2.833334,-3.09895 6.109375,-5.04687 3.364583,-1.94792 5.932292,-2.47917 14.2552073,-2.83333 18.6822905,4.78125 1.8593749,2.92188 2.0364583,6.19792 0.1770833,3.27604 -0.4427083,6.10937 -0.53125,2.7448 -1.4166667,4.69271 -0.7968749,1.85938 -1.0624999,2.03646 -0.53125,0.53125 -1.68229166,1.15104 -1.15104164,0.61979 -3.71874994,1.15104 -0.7083333,0.17709 -1.4166666,0.17709 -0.6197916,0 -1.3281249,-0.0885 -0.7083334,-0.0885 -1.2395833,-0.35417 z" />
    </g>
  </g>
  <g
     inkscape:groupmode="layer"
     id="g911"
     inkscape:label="Own_drawing_hand with fingers"
     style="display:inline;opacity:1">
    <g
       id="g909"
       transform="matrix(0.09435935,0.25237544,-0.25237544,0.09435935,5.6250958,28.259179)"
       inkscape:export-xdpi="300.70001"
       inkscape:export-ydpi="300.70001">
      <path
         sodipodi:nodetypes="cscscccccscccccccssc"
         inkscape:connector-curvature="0"
         id="path901"
         d="m -69.763063,-35.458626 c -0.149243,-0.698239 -0.480731,-1.009428 -0.534482,-2.064885 -0.06508,-1.27789 -0.108358,-2.732253 -0.436168,-4.130088 0,0 0.1024,-2.929346 0.109724,-3.196515 0.05867,-2.140414 -2.216411,-3.277227 -2.57247,-2.505652 -0.657429,2.8731 -0.733241,3.489337 -0.902036,12.528261 0.866553,4.135134 4.478629,9.097508 5.463557,11.471 1.155935,1.881794 2.116222,2.63577 3.489972,3.395866 3.431321,3.18948 6.975337,6.554008 10.938663,8.741342 3.397054,1.4578023 7.22129,2.8229036 9.589975,4.2337499 2.419626,1.4411878 19.95346,2.7546442 28.20672,-0.690893 m -25.118278,-8.9185439 c -3.570968,-3.903933 0.366763,-1.410666 -7.332349,-7.037775 -1.560939,-0.80222 -5.193125,-2.7763 -8.238044,-2.541487 -1.582082,-1.865722 -4.811733,-4.125525 -6.476476,-5.412617 -1.835611,-2.766589 -3.711094,-4.596414 -6.514696,-3.741774 -1.183373,0.942882 2.913431,4.586612 3.899125,6.36375 0.56238,1.047185 1.606167,2.059642 2.168546,2.689211 0.28119,0.314785 2.271453,2.595284 3.166402,3.045918 1.263306,0.636113 1.194863,1.338875 1.604705,2.28568"
         style="fill:none;stroke:#ffffff;stroke-width:1.76756549;stroke-linecap:round;stroke-linejoin:bevel;stroke-miterlimit:4;stroke-dasharray:none;stroke-opacity:1" />
      <path
         sodipodi:nodetypes="cccscccc"
         inkscape:connector-curvature="0"
         id="path903"
         d="m -72.146068,-47.579502 c -0.03341,-0.367496 0.233863,-1.520095 0.233863,-1.520095 0.351192,-0.664627 1.607141,-0.278797 2.221677,1.353053 0.282843,1.786683 0.582236,3.064107 0.868626,4.276312 0.03073,0.130056 0.501129,3.691662 0.501129,3.691662 0.830127,1.93934 0.796836,2.903073 1.336347,4.460058 l 0.601357,0.283974 0.567946,0.584653"
         style="fill:none;stroke:#ffffff;stroke-width:0.88378274;stroke-linecap:butt;stroke-linejoin:miter;stroke-miterlimit:4;stroke-dasharray:none;stroke-opacity:1" />
      <path
         style="fill:none;stroke:#ffffff;stroke-width:0.88378274;stroke-linecap:butt;stroke-linejoin:miter;stroke-miterlimit:4;stroke-dasharray:none;stroke-opacity:1"
         d="m -69.808646,-48.006403 c 0.351192,-0.664627 1.607141,-0.278797 2.221677,1.353053 0.282843,1.786683 0.525102,3.077414 0.868626,4.276312 0.03793,0.132384 0.501129,3.691662 0.501129,3.691662 0.830127,1.93934 0.796836,2.903073 1.336347,4.460058 l 0.294251,0.921809"
         id="path905"
         inkscape:connector-curvature="0"
         sodipodi:nodetypes="ccsccc" />
      <path
         sodipodi:nodetypes="ccscc"
         inkscape:connector-curvature="0"
         id="path907"
         d="m -66.950201,-43.234453 c 0.351192,-0.263028 1.016553,-0.538656 1.631089,1.093194 0.282843,1.786683 0.114715,2.264959 0.49065,3.095136 0.101307,0.223716 0.54323,2.338573 0.453882,3.455427 0.712009,2.010211 1.859894,3.375544 2.399405,4.932529"
         style="fill:none;stroke:#ffffff;stroke-width:0.88378274;stroke-linecap:butt;stroke-linejoin:miter;stroke-miterlimit:4;stroke-dasharray:none;stroke-opacity:1" />
    </g>
    <g
       inkscape:export-ydpi="300.70001"
       inkscape:export-xdpi="300.70001"
       transform="matrix(-0.08102171,-0.25696795,0.25696795,-0.08102171,26.99701,4.0363892)"
       id="g931">
      <path
         style="fill:none;stroke:#ffffff;stroke-width:1.76756549;stroke-linecap:round;stroke-linejoin:bevel;stroke-miterlimit:4;stroke-dasharray:none;stroke-opacity:1"
         d="m -69.763063,-35.458626 c -0.149243,-0.698239 -0.480731,-1.009428 -0.534482,-2.064885 -0.06508,-1.27789 -0.108358,-2.732253 -0.436168,-4.130088 0,0 0.1024,-2.929346 0.109724,-3.196515 0.05867,-2.140414 -2.216411,-3.277227 -2.57247,-2.505652 -0.657429,2.8731 -0.733241,3.489337 -0.902036,12.528261 0.866553,4.135134 4.478629,9.097508 5.463557,11.471 1.155935,1.881794 2.116222,2.63577 3.489972,3.395866 3.431321,3.18948 6.975337,6.554008 10.938663,8.741342 3.397054,1.4578023 7.22129,2.8229036 9.589975,4.2337499 2.419626,1.4411878 25.470008,2.3807208 34.030947,-2.6519496 m -30.942505,-6.9574873 c -3.570968,-3.903933 0.366763,-1.410666 -7.332349,-7.037775 -1.560939,-0.80222 -5.193125,-2.7763 -8.238044,-2.541487 -1.582082,-1.865722 -4.811733,-4.125525 -6.476476,-5.412617 -1.835611,-2.766589 -3.711094,-4.596414 -6.514696,-3.741774 -1.183373,0.942882 2.913431,4.586612 3.899125,6.36375 0.56238,1.047185 1.606167,2.059642 2.168546,2.689211 0.28119,0.314785 2.271453,2.595284 3.166402,3.045918 1.263306,0.636113 1.194863,1.338875 1.604705,2.28568"
         id="path923"
         inkscape:connector-curvature="0"
         sodipodi:nodetypes="cscscccccscccccccssc" />
      <path
         style="fill:none;stroke:#ffffff;stroke-width:0.88378274;stroke-linecap:butt;stroke-linejoin:miter;stroke-miterlimit:4;stroke-dasharray:none;stroke-opacity:1"
         d="m -72.146068,-47.579502 c -0.03341,-0.367496 0.233863,-1.520095 0.233863,-1.520095 0.351192,-0.664627 1.607141,-0.278797 2.221677,1.353053 0.282843,1.786683 0.582236,3.064107 0.868626,4.276312 0.03073,0.130056 0.501129,3.691662 0.501129,3.691662 0.830127,1.93934 0.796836,2.903073 1.336347,4.460058 l 0.601357,0.283974 0.567946,0.584653"
         id="path925"
         inkscape:connector-curvature="0"
         sodipodi:nodetypes="cccscccc" />
      <path
         sodipodi:nodetypes="ccsccc"
         inkscape:connector-curvature="0"
         id="path927"
         d="m -69.808646,-48.006403 c 0.351192,-0.664627 1.607141,-0.278797 2.221677,1.353053 0.282843,1.786683 0.525102,3.077414 0.868626,4.276312 0.03793,0.132384 0.501129,3.691662 0.501129,3.691662 0.830127,1.93934 0.796836,2.903073 1.336347,4.460058 l 0.294251,0.921809"
         style="fill:none;stroke:#ffffff;stroke-width:0.88378274;stroke-linecap:butt;stroke-linejoin:miter;stroke-miterlimit:4;stroke-dasharray:none;stroke-opacity:1" />
      <path
         style="fill:none;stroke:#ffffff;stroke-width:0.88378274;stroke-linecap:butt;stroke-linejoin:miter;stroke-miterlimit:4;stroke-dasharray:none;stroke-opacity:1"
         d="m -66.950201,-43.234453 c 0.351192,-0.263028 1.016553,-0.538656 1.631089,1.093194 0.282843,1.786683 0.114715,2.264959 0.49065,3.095136 0.101307,0.223716 0.54323,2.338573 0.453882,3.455427 0.712009,2.010211 1.859894,3.375544 2.399405,4.932529"
         id="path929"
         inkscape:connector-curvature="0"
         sodipodi:nodetypes="ccscc" />
    </g>
  </g>
  <g
     style="display:inline"
     inkscape:label="Satisfy subtitle"
     id="layer7"
     inkscape:groupmode="layer" />
</svg>
